<svg width="22" height="22" viewBox="0 0 22 22" fill="none" xmlns="http://www.w3.org/2000/svg">
<mask id="mask0_349_699" style="mask-type:alpha" maskUnits="userSpaceOnUse" x="0" y="1" width="22" height="20">
<path d="M10.9879 20.4862L1.76367 11.262C0.70452 10.2029 0.121094 8.79452 0.121094 7.29684C0.121094 5.79891 0.70452 4.39081 1.76367 3.33166C2.82282 2.27251 4.23092 1.68909 5.72884 1.68909C7.22677 1.68909 8.63487 2.27251 9.69402 3.33166L10.9879 4.62554L12.2818 3.33166C13.3409 2.27251 14.7492 1.68909 16.2469 1.68909C17.7449 1.68909 19.153 2.27251 20.2121 3.33166C21.2715 4.39081 21.8547 5.79891 21.8547 7.29684C21.8547 8.79477 21.2715 10.2029 20.2121 11.262L10.9879 20.4862ZM5.72884 2.65502C4.48906 2.65502 3.32342 3.13799 2.44659 4.01458C1.56976 4.89117 1.08703 6.05706 1.08703 7.29684C1.08703 8.53662 1.57 9.70226 2.44659 10.5791L10.9879 19.1204L19.5292 10.5791C20.406 9.70226 20.8887 8.53662 20.8887 7.29684C20.8887 6.05706 20.406 4.89141 19.5292 4.01458C18.6524 3.13799 17.487 2.65502 16.2469 2.65502C15.0072 2.65502 13.8415 3.13799 12.9647 4.01458L10.9879 5.99161L9.01086 4.01458C8.13427 3.13799 6.96862 2.65502 5.72884 2.65502Z" fill="#A37BEF"/>
</mask>
<g mask="url(#mask0_349_699)">
<ellipse cx="11" cy="10.5" rx="17" ry="15.5" fill="#A16FFF"/>
</g>
<path d="M10.9879 20.4862L1.76367 11.262C0.70452 10.2029 0.121094 8.79452 0.121094 7.29684C0.121094 5.79891 0.70452 4.39081 1.76367 3.33166C2.82282 2.27251 4.23092 1.68909 5.72884 1.68909C7.22677 1.68909 8.63487 2.27251 9.69402 3.33166L10.9879 4.62554L12.2818 3.33166C13.3409 2.27251 14.7492 1.68909 16.2469 1.68909C17.7449 1.68909 19.153 2.27251 20.2121 3.33166C21.2715 4.39081 21.8547 5.79891 21.8547 7.29684C21.8547 8.79477 21.2715 10.2029 20.2121 11.262L10.9879 20.4862ZM5.72884 2.65502C4.48906 2.65502 3.32342 3.13799 2.44659 4.01458C1.56976 4.89117 1.08703 6.05706 1.08703 7.29684C1.08703 8.53662 1.57 9.70226 2.44659 10.5791L10.9879 19.1204L19.5292 10.5791C20.406 9.70226 20.8887 8.53662 20.8887 7.29684C20.8887 6.05706 20.406 4.89141 19.5292 4.01458C18.6524 3.13799 17.487 2.65502 16.2469 2.65502C15.0072 2.65502 13.8415 3.13799 12.9647 4.01458L10.9879 5.99161L9.01086 4.01458C8.13427 3.13799 6.96862 2.65502 5.72884 2.65502Z" fill="#A37BEF"/>
</svg>
