<svg width="40" height="40" viewBox="0 0 40 40" fill="none" xmlns="http://www.w3.org/2000/svg">
<g clip-path="url(#clip0_208_2107)">
<path d="M30.3898 40H9.61023C4.31108 40 0 35.6889 0 30.3898V9.61023C0 4.31108 4.31108 0 9.61023 0H30.3898C35.6889 0 40 4.31108 40 9.61023V30.3898C40 35.6889 35.6889 40 30.3898 40ZM9.61023 0.733239C4.71534 0.733239 0.733239 4.71534 0.733239 9.61023V30.3898C0.733239 35.2847 4.71534 39.2668 9.61023 39.2668H30.3898C35.2847 39.2668 39.2668 35.2847 39.2668 30.3898V9.61023C39.2668 4.71534 35.2847 0.733239 30.3898 0.733239H9.61023Z" fill="#A16FFF"/>
<path d="M23.0496 40H16.4252V26.4821H11.5371V20.1026H16.4252V20.0836C16.0306 13.5074 16.8337 11.9012 17.2536 11.5106C18.236 9.41993 20.5783 8.20544 24.0357 7.99607C26.6201 7.83953 28.8922 8.28669 28.9877 8.30573L29.2823 8.36482V14.3222L28.9039 14.31C28.5323 14.2981 28.1897 14.2824 27.8584 14.2677C26.4871 14.2057 25.4965 14.1611 24.8249 14.4924C22.8419 15.4705 23.0448 17.4736 23.0471 17.4938L23.0493 17.535V20.1029H28.7948L28.1468 26.4824H23.0493V40.0003L23.0496 40ZM17.1584 39.2668H22.3164V25.7489H27.4846L27.9834 20.8361H22.3161V17.5492C22.2953 17.2736 22.1968 14.9708 24.5005 13.8344C25.3414 13.4196 26.411 13.4679 27.8914 13.5347C28.1044 13.5444 28.3223 13.554 28.549 13.5631V8.97306C26.9905 8.72022 19.7249 7.783 17.8846 11.8932L17.8303 12.014L17.7445 12.056C17.6303 12.1759 16.7533 13.3282 17.1576 20.0503L17.1581 20.0722V20.8356H12.2701V25.7483H17.1581V39.2662L17.1584 39.2668Z" fill="#A16FFF"/>
</g>
<defs>
<clipPath id="clip0_208_2107">
<rect width="40" height="40" fill="white"/>
</clipPath>
</defs>
</svg>
