<svg width="210" height="85" viewBox="0 0 210 85" fill="none" xmlns="http://www.w3.org/2000/svg">
<path d="M38.3542 29.2781H35V0H38.3542V29.2781ZM55.1254 0H58.4272V29.2781H55.1254V0ZM56.9073 15.5491H36.7819V12.8449H56.9073V15.5491Z" fill="#B0FFB5"/>
<path d="M73.6289 29.7981C71.2879 29.7981 69.3488 29.2781 67.8114 28.238C66.309 27.1632 65.1909 25.7938 64.4572 24.1297C63.7584 22.4309 63.409 20.6801 63.409 18.8773C63.409 16.9012 63.7933 15.0984 64.562 13.469C65.3656 11.8048 66.5186 10.4874 68.021 9.51667C69.5584 8.54594 71.3927 8.06057 73.5241 8.06057C75.3759 8.06057 77.0006 8.45926 78.3982 9.25665C79.8307 10.0194 80.9663 11.1288 81.8048 12.5849C82.6783 14.041 83.1675 15.7571 83.2723 17.7333C83.3072 17.8719 83.3247 18.0799 83.3247 18.3573C83.3247 18.6 83.3247 18.8253 83.3247 19.0333H66.6584C66.6584 21.4949 67.2524 23.4363 68.4403 24.8578C69.6632 26.2445 71.3753 26.9379 73.5765 26.9379C75.2187 26.9379 76.6162 26.5219 77.7693 25.6898C78.9572 24.8578 79.691 23.731 79.9705 22.3096H83.2723C83.0277 23.731 82.4861 25.0138 81.6476 26.1578C80.809 27.3019 79.7084 28.2033 78.3458 28.862C76.9831 29.4861 75.4108 29.7981 73.6289 29.7981ZM66.7632 17.2132H79.8657C79.8657 16.6585 79.7434 16.0345 79.4988 15.3411C79.2891 14.613 78.9397 13.9197 78.4506 13.2609C77.9614 12.5676 77.315 11.9955 76.5114 11.5448C75.7078 11.0941 74.6946 10.8688 73.4717 10.8688C72.3885 10.8688 71.4451 11.0594 70.6415 11.4408C69.8379 11.7875 69.1566 12.2729 68.5975 12.8969C68.0735 13.4863 67.6542 14.1623 67.3397 14.9251C67.0602 15.6878 66.868 16.4505 66.7632 17.2132Z" fill="#B0FFB5"/>
<path d="M88.3126 29.2781V0H91.6145V29.2781H88.3126Z" fill="#B0FFB5"/>
<path d="M105.031 29.7981C103.843 29.7981 102.76 29.6248 101.782 29.2781C100.803 28.966 99.9472 28.5327 99.2135 27.978C98.5147 27.4233 97.9032 26.8339 97.3791 26.2099C96.89 25.5511 96.5231 24.8924 96.2785 24.2337C96.0339 23.575 95.9116 22.9856 95.9116 22.4656H99.1611C99.1611 22.5003 99.196 22.7603 99.2659 23.2456C99.3358 23.731 99.5454 24.2857 99.8948 24.9098C100.244 25.5338 100.821 26.0885 101.624 26.5739C102.428 27.0246 103.563 27.2499 105.031 27.2499C106.079 27.2499 107.023 27.1286 107.861 26.8859C108.7 26.6432 109.346 26.2619 109.8 25.7418C110.289 25.2218 110.517 24.5804 110.482 23.8177C110.482 22.8123 110.132 22.0496 109.433 21.5295C108.77 20.9748 107.896 20.5588 106.813 20.2814C105.73 19.9694 104.594 19.6747 103.406 19.3974C102.218 19.12 101.083 18.7733 99.9996 18.3573C98.9165 17.9066 98.043 17.2826 97.3791 16.4852C96.7153 15.6878 96.4008 14.5784 96.4357 13.1569C96.4707 11.4235 97.2568 10.054 98.7942 9.04864C100.366 8.00856 102.376 7.48853 104.821 7.48853C105.835 7.48853 106.865 7.60987 107.913 7.85255C108.997 8.09524 109.975 8.49393 110.848 9.04864C111.757 9.56868 112.473 10.3141 112.997 11.2848C113.521 12.2209 113.748 13.3996 113.679 14.821H110.534C110.569 13.8503 110.394 13.0703 110.01 12.4809C109.66 11.8568 109.171 11.3888 108.542 11.0768C107.948 10.7301 107.302 10.5047 106.603 10.4007C105.939 10.2621 105.31 10.1927 104.716 10.1927C103.214 10.1927 101.974 10.4701 100.995 11.0248C100.052 11.5795 99.5803 12.3595 99.5803 13.3649C99.5803 14.301 99.9123 15.0291 100.576 15.5491C101.275 16.0691 102.148 16.4852 103.197 16.7972C104.28 17.0745 105.415 17.3519 106.603 17.6292C107.826 17.8719 108.979 18.2186 110.062 18.6693C111.145 19.12 112.019 19.7614 112.683 20.5935C113.382 21.4255 113.731 22.5696 113.731 24.0257C113.731 25.3778 113.347 26.4872 112.578 27.3539C111.844 28.186 110.813 28.81 109.486 29.2261C108.193 29.6074 106.708 29.7981 105.031 29.7981Z" fill="#B0FFB5"/>
<path d="M118.151 29.2781V8.11257H121.558V29.2781H118.151ZM119.881 4.94035C119.007 4.94035 118.413 4.715 118.099 4.2643C117.785 3.8136 117.627 3.29357 117.627 2.70419C117.627 2.14949 117.785 1.66412 118.099 1.24809C118.413 0.797389 119.007 0.572039 119.881 0.572039C120.754 0.572039 121.331 0.797389 121.61 1.24809C121.89 1.66412 122.03 2.14949 122.03 2.70419C122.03 3.29357 121.89 3.8136 121.61 4.2643C121.331 4.715 120.754 4.94035 119.881 4.94035Z" fill="#B0FFB5"/>
<path d="M126.272 29.2781V8.11257H129.155L129.731 13.3649H129.836C129.906 13.1916 130.063 12.8276 130.308 12.2729C130.587 11.6835 131.006 11.0768 131.565 10.4527C132.124 9.82869 132.876 9.29132 133.819 8.84062C134.797 8.35526 136.02 8.11257 137.488 8.11257C138.955 8.11257 140.178 8.33792 141.156 8.78862C142.135 9.20465 142.903 9.79402 143.462 10.5567C144.056 11.2848 144.493 12.1169 144.773 13.0529C145.052 13.989 145.227 14.9597 145.297 15.9651C145.402 16.9359 145.454 17.8893 145.454 18.8253V29.2781H142.205V18.8253C142.205 17.2999 142.03 15.9651 141.681 14.821C141.366 13.6423 140.79 12.7409 139.951 12.1169C139.112 11.4581 137.925 11.1288 136.387 11.1288C134.815 11.1288 133.54 11.5101 132.561 12.2729C131.583 13.0009 130.867 13.989 130.412 15.2371C129.958 16.4505 129.731 17.7853 129.731 19.2414V29.2781H126.272Z" fill="#B0FFB5"/>
<path d="M154.903 38.0147V34.8425H165.542V24.5977H165.437C165.367 24.7711 165.175 25.1351 164.861 25.6898C164.581 26.2445 164.127 26.8339 163.498 27.4579C162.904 28.082 162.118 28.6367 161.14 29.1221C160.196 29.5728 159.043 29.7981 157.681 29.7981C155.619 29.7981 153.89 29.3301 152.492 28.394C151.129 27.4233 150.099 26.1232 149.4 24.4937C148.701 22.8643 148.352 21.0268 148.352 18.9813C148.352 16.8665 148.701 14.9944 149.4 13.3649C150.099 11.7008 151.147 10.4181 152.545 9.51667C153.942 8.58061 155.672 8.11257 157.733 8.11257C159.131 8.11257 160.319 8.35526 161.297 8.84062C162.275 9.29132 163.044 9.84603 163.603 10.5047C164.197 11.1635 164.634 11.7702 164.913 12.3249C165.193 12.8796 165.367 13.2436 165.437 13.4169H165.542V8.11257H169.001V32.9183C169.001 34.0277 168.861 34.9638 168.582 35.7265C168.337 36.4892 167.883 37.0613 167.219 37.4426C166.59 37.824 165.734 38.0147 164.651 38.0147H154.903ZM158.414 26.8339C159.812 26.8339 161.035 26.5219 162.083 25.8978C163.166 25.2738 163.987 24.3724 164.546 23.1936C165.14 21.9802 165.437 20.5761 165.437 18.9813C165.437 17.3866 165.158 15.9998 164.599 14.821C164.075 13.6423 163.306 12.7409 162.293 12.1169C161.279 11.4928 160.092 11.1808 158.729 11.1808C157.087 11.1808 155.742 11.5622 154.693 12.3249C153.645 13.0529 152.876 14.0063 152.387 15.1851C151.898 16.3638 151.654 17.6292 151.654 18.9813C151.654 20.2988 151.863 21.5642 152.282 22.7776C152.737 23.9564 153.453 24.9271 154.431 25.6898C155.445 26.4525 156.772 26.8339 158.414 26.8339Z" fill="#B0FFB5"/>
<path d="M174.562 30.5262L189.918 6.24044L191.176 6.96849L175.82 31.2022L174.562 30.5262ZM183.105 29.7981C180.834 29.7981 178.929 29.3301 177.392 28.394C175.89 27.4579 174.754 26.1752 173.985 24.5457C173.252 22.9163 172.885 21.0615 172.885 18.9813C172.885 16.8665 173.252 14.9944 173.985 13.3649C174.754 11.7008 175.89 10.4007 177.392 9.46467C178.929 8.5286 180.834 8.06057 183.105 8.06057C186.424 8.06057 188.957 9.06597 190.704 11.0768C192.451 13.0529 193.325 15.6878 193.325 18.9813C193.325 21.0268 192.958 22.8643 192.224 24.4937C191.49 26.1232 190.372 27.4233 188.87 28.394C187.367 29.3301 185.446 29.7981 183.105 29.7981ZM183.105 26.8859C184.957 26.8859 186.372 26.4872 187.35 25.6898C188.328 24.8924 189.01 23.887 189.394 22.6736C189.813 21.4255 190.023 20.1601 190.023 18.8773C190.023 17.5946 189.813 16.3292 189.394 15.0811C189.01 13.833 188.328 12.8102 187.35 12.0128C186.372 11.2155 184.957 10.8168 183.105 10.8168C181.323 10.8168 179.908 11.2155 178.86 12.0128C177.846 12.8102 177.148 13.833 176.763 15.0811C176.379 16.3292 176.187 17.5946 176.187 18.8773C176.187 20.1601 176.379 21.4255 176.763 22.6736C177.148 23.887 177.846 24.8924 178.86 25.6898C179.908 26.4872 181.323 26.8859 183.105 26.8859Z" fill="#B0FFB5"/>
<path d="M197.631 29.2781V8.11257H200.671L201.038 14.197L200.986 18.7733V29.2781H197.631ZM200.986 19.3974L200.828 14.769C200.898 13.9717 201.108 13.1743 201.457 12.3769C201.807 11.5795 202.296 10.8688 202.925 10.2447C203.589 9.58601 204.427 9.06597 205.44 8.68461C206.454 8.30325 207.642 8.11257 209.004 8.11257H210V11.8048H208.952C207.275 11.8048 205.912 11.9955 204.864 12.3769C203.816 12.7236 203.012 13.2436 202.453 13.937C201.894 14.5957 201.51 15.3931 201.3 16.3292C201.09 17.2652 200.986 18.288 200.986 19.3974Z" fill="#B0FFB5"/>
<path d="M49.2205 45.9929V42.0406L64.9959 26.5435H69.3983V27.0636L49.2205 45.9929ZM46.0759 55.8736V26.5435H49.4826V55.8736H46.0759ZM66.0965 55.8216L53.7278 40.3245L56.1386 37.9843L70.0272 55.3016V55.8216H66.0965Z" fill="#B0FFB5"/>
<path d="M80.4113 56.3416C79.0487 56.3416 77.8782 56.1336 76.8999 55.7176C75.9565 55.3016 75.1703 54.7469 74.5414 54.0535C73.9474 53.3254 73.4932 52.5107 73.1788 51.6093C72.8643 50.6732 72.6372 49.7025 72.4974 48.6971C72.3926 47.657 72.3402 46.617 72.3402 45.5769V34.6561H75.6944V45.6289C75.6944 47.0157 75.8342 48.2984 76.1137 49.4772C76.4282 50.6559 77.0047 51.592 77.8432 52.2854C78.6818 52.9787 79.9222 53.3254 81.5643 53.3254C83.1366 53.3254 84.3595 52.9614 85.233 52.2334C86.1415 51.5053 86.8053 50.5866 87.2246 49.4772C87.6439 48.3331 87.8885 47.137 87.9583 45.8889V34.6561H91.4174V55.8216H88.5348L87.9583 51.0893H87.8535C87.7137 51.54 87.4692 52.06 87.1198 52.6494C86.8053 53.2388 86.3511 53.8108 85.7571 54.3655C85.1631 54.9202 84.4119 55.3882 83.5035 55.7696C82.63 56.151 81.5993 56.3416 80.4113 56.3416Z" fill="#B0FFB5"/>
<path d="M96.5699 55.8216V26.5435H99.8717V55.8216H96.5699Z" fill="#B0FFB5"/>
<path d="M109.934 55.8216C108.676 55.8216 107.785 55.4749 107.261 54.7815C106.737 54.0882 106.475 53.1348 106.475 51.9213V36.6843H109.724V53.1174H114.703V55.8216H109.934ZM103.121 37.1523V34.6561C103.959 34.6561 104.623 34.6214 105.112 34.5521C105.636 34.4481 106.021 34.2401 106.265 33.9281C106.51 33.5814 106.667 33.0267 106.737 32.2639C106.807 31.5012 106.842 30.4785 106.842 29.1957H109.724V34.6561H114.651V37.1523H103.121Z" fill="#B0FFB5"/>
<path d="M126.986 56.3416C125.624 56.3416 124.453 56.1336 123.475 55.7176C122.532 55.3016 121.745 54.7469 121.117 54.0535C120.523 53.3254 120.068 52.5107 119.754 51.6093C119.439 50.6732 119.212 49.7025 119.073 48.6971C118.968 47.657 118.915 46.617 118.915 45.5769V34.6561H122.27V45.6289C122.27 47.0157 122.409 48.2984 122.689 49.4772C123.003 50.6559 123.58 51.592 124.418 52.2854C125.257 52.9787 126.497 53.3254 128.139 53.3254C129.712 53.3254 130.935 52.9614 131.808 52.2334C132.717 51.5053 133.38 50.5866 133.8 49.4772C134.219 48.3331 134.464 47.137 134.533 45.8889V34.6561H137.992V55.8216H135.11L134.533 51.0893H134.429C134.289 51.54 134.044 52.06 133.695 52.6494C133.38 53.2388 132.926 53.8108 132.332 54.3655C131.738 54.9202 130.987 55.3882 130.079 55.7696C129.205 56.151 128.174 56.3416 126.986 56.3416Z" fill="#B0FFB5"/>
<path d="M142.935 55.8216V34.6561H145.975L146.342 40.7405L146.29 45.3169V55.8216H142.935ZM146.29 45.9409L146.132 41.3126C146.202 40.5152 146.412 39.7178 146.761 38.9204C147.111 38.123 147.6 37.4123 148.229 36.7883C148.893 36.1296 149.731 35.6095 150.744 35.2282C151.758 34.8468 152.946 34.6561 154.308 34.6561H155.304V38.3484H154.256C152.579 38.3484 151.216 38.5391 150.168 38.9204C149.12 39.2671 148.316 39.7871 147.757 40.4805C147.198 41.1392 146.814 41.9366 146.604 42.8727C146.394 43.8088 146.29 44.8315 146.29 45.9409Z" fill="#B0FFB5"/>
<path d="M142.842 55.2539H146.249V84.532H139.907L125.232 56.762H125.127V84.532H121.721V55.2539H127.643L142.737 83.0239H142.842V55.2539Z" fill="#B0FFB5"/>
<path d="M158.777 85C156.821 85 155.213 84.532 153.956 83.5959C152.698 82.6252 151.754 81.3251 151.126 79.6956C150.532 78.0662 150.235 76.2114 150.235 74.1312C150.235 71.9818 150.549 70.0923 151.178 68.4628C151.807 66.8334 152.75 65.5506 154.008 64.6146C155.301 63.6438 156.891 63.1585 158.777 63.1585C159.895 63.1585 160.856 63.3145 161.66 63.6265C162.498 63.9038 163.215 64.2852 163.809 64.7706C164.403 65.2559 164.892 65.776 165.276 66.3307C165.695 66.8507 166.01 67.3534 166.22 67.8388H166.272V63.3665H169.731V84.532H166.848L166.324 80.4237H166.22C165.975 80.9437 165.66 81.4811 165.276 82.0358C164.892 82.5558 164.385 83.0412 163.756 83.4919C163.162 83.9426 162.446 84.3066 161.607 84.584C160.804 84.8613 159.86 85 158.777 85ZM160.088 82.0358C161.555 82.0358 162.726 81.7238 163.599 81.0997C164.507 80.441 165.171 79.5223 165.591 78.3435C166.01 77.1648 166.22 75.778 166.22 74.1832C166.22 72.4845 165.992 71.0457 165.538 69.8669C165.119 68.6882 164.455 67.8041 163.547 67.2147C162.638 66.5907 161.485 66.2787 160.088 66.2787C158.55 66.2787 157.292 66.6254 156.314 67.3187C155.371 68.0121 154.689 68.9482 154.27 70.1269C153.851 71.3057 153.641 72.6405 153.641 74.1312C153.641 75.6567 153.851 77.0261 154.27 78.2395C154.724 79.4183 155.423 80.3543 156.366 81.0477C157.345 81.7064 158.585 82.0358 160.088 82.0358Z" fill="#B0FFB5"/>
<path d="M178.995 84.532C177.737 84.532 176.846 84.1853 176.322 83.4919C175.798 82.7985 175.536 81.8451 175.536 80.6317V65.3946H178.785V81.8278H183.764V84.532H178.995ZM172.182 65.8626V63.3665C173.02 63.3665 173.684 63.3318 174.173 63.2625C174.697 63.1585 175.082 62.9504 175.326 62.6384C175.571 62.2917 175.728 61.737 175.798 60.9743C175.868 60.2116 175.903 59.1888 175.903 57.9061H178.785V63.3665H183.712V65.8626H172.182Z" fill="#B0FFB5"/>
<g clip-path="url(#clip0_302_387)">
<path d="M26.9998 13.5006C21.0199 13.3709 18.3616 12.3337 16.457 10.5428C14.6661 8.63821 13.6289 5.97986 13.4992 0C13.3696 5.97986 12.3324 8.63821 10.5414 10.5428C8.63687 12.3337 5.97851 13.3709 -0.00134277 13.5006C5.97851 13.6302 8.63687 14.6674 10.5414 16.4584C12.3324 18.3629 13.3696 21.0213 13.4992 27.0011C13.6289 21.0213 14.6661 18.3629 16.457 16.4584C18.3616 14.6674 21.0199 13.6302 26.9998 13.5006Z" fill="#B0FFB5"/>
</g>
<defs>
<clipPath id="clip0_302_387">
<rect width="27" height="27" fill="white"/>
</clipPath>
</defs>
</svg>
