<svg width="42" height="48" viewBox="0 0 42 48" fill="none" xmlns="http://www.w3.org/2000/svg">
<ellipse cx="20.9428" cy="24" rx="20.8811" ry="23.4783" fill="#D6C3F8"/>
<path d="M32.3749 37.9402L23.3308 27.7712C22.613 28.4168 21.7876 28.928 20.8545 29.3046C19.9213 29.6812 18.9284 29.8696 17.8757 29.8696C15.2677 29.8696 13.0605 28.854 11.2541 26.8229C9.44765 24.7918 8.54443 22.31 8.54443 19.3777C8.54443 16.4454 9.44765 13.9636 11.2541 11.9325C13.0605 9.90142 15.2677 8.88586 17.8757 8.88586C20.4836 8.88586 22.6908 9.90142 24.4972 11.9325C26.3037 13.9636 27.2069 16.4454 27.2069 19.3777C27.2069 20.5614 27.0394 21.6778 26.7044 22.727C26.3695 23.7762 25.9149 24.7043 25.3406 25.5114L34.3847 35.6804L32.3749 37.9402ZM17.8757 26.6413C19.6701 26.6413 21.1954 25.9351 22.4515 24.5228C23.7077 23.1104 24.3357 21.3954 24.3357 19.3777C24.3357 17.36 23.7077 15.645 22.4515 14.2327C21.1954 12.8203 19.6701 12.1141 17.8757 12.1141C16.0812 12.1141 14.5559 12.8203 13.2998 14.2327C12.0436 15.645 11.4156 17.36 11.4156 19.3777C11.4156 21.3954 12.0436 23.1104 13.2998 24.5228C14.5559 25.9351 16.0812 26.6413 17.8757 26.6413Z" fill="#A37BEF"/>
</svg>
